<?xml version="1.0" encoding="UTF-8"?>
<svg width="22px" height="22px" viewBox="0 0 22 22" version="1.1" xmlns="http://www.w3.org/2000/svg" xmlns:xlink="http://www.w3.org/1999/xlink">
    <!-- Generator: Sketch 61.2 (89653) - https://sketch.com -->
    <title>ditu</title>
    <desc>Created with Sketch.</desc>
    <g id="V2.4.0_PC" stroke="none" stroke-width="1" fill="none" fill-rule="evenodd">
        <g id="深蓝保测评官网_V2.4.0_首页_1" transform="translate(-1282.000000, -2314.000000)" fill-rule="nonzero">
            <g id="底部导航" transform="translate(0.000000, 2098.000000)">
                <g id="编组-8" transform="translate(548.000000, 216.000000)">
                    <g id="编组-6" transform="translate(734.000000, 0.000000)">
                        <g id="ditu">
                            <path d="M5.50013964,20.5257832 C0.244637222,17.4812961 -1.56121823,10.7556421 1.47169287,5.50013965 C4.50460397,0.244637229 11.2302579,-1.56121822 16.4973364,1.47169286 C21.7644148,4.50460394 23.5586942,11.2302579 20.5257832,16.4973364 C17.4928721,21.7644148 10.7556421,23.5586942 5.50013964,20.5257832 Z M6.05578749,19.5649754 C10.7903701,22.2969106 16.8446163,20.6762711 19.5765514,15.9416885 C22.3084866,11.2071059 20.6878471,5.15285976 15.9532645,2.42092459 C11.2186819,-0.311010575 5.16443576,1.32120491 2.43250058,6.0557875 C-0.299434607,10.7903701 1.32120491,16.8330403 6.05578749,19.5649754 Z" id="形状" fill="#F4F4F4"></path>
                            <path d="M1.22308387,11 L9.77777778,16.2389575 L7.31402594,20.7777778 C6.91480689,20.5967078 6.51558784,20.3914952 6.12777505,20.1621399 C2.94542892,18.2065844 1.17745884,14.6455418 1.22308387,11 Z" id="路径" fill="#A6CBFD"></path>
                            <path d="M15.8888889,19.4882414 C14.0555556,20.5687551 11.9,20.9901555 9.77777778,20.6768065 L11.8111111,17.1111111 L15.8888889,19.4882414 L15.8888889,19.4882414 Z" id="路径" fill="#CEEA98"></path>
                            <path d="M1.22222222,8.65381996 C1.44077262,7.79804459 1.78585217,6.95383374 2.25746092,6.14431647 C4.28192769,2.67495683 8.1238135,0.882454357 11.9196887,1.27564845 L6.01882815,11.3946141 L1.22222222,8.65381996 Z M14.1857111,1.79605241 C14.7493411,1.99264945 15.312971,2.25863369 15.8535957,2.57087606 C20.5581804,5.32323472 22.1800544,11.4177431 19.4539258,16.1707658 C18.9938197,16.9802831 18.4301898,17.7088486 17.7975439,18.3333333 L8.00878697,12.6204545 L14.1857111,1.79605241 Z" id="形状" fill="#EDEAE1"></path>
                            <path d="M15.2777778,15.8888889 C18.9404151,14.8965897 20.7777778,14.1342134 20.7777778,13.6259626 C20.7777778,12.8514852 18.3118437,12.2222222 15.2777778,12.2222222 C12.2437118,12.2222222 9.77777778,12.8514852 9.77777778,13.6259626 C9.77777778,14.1342134 11.6151404,14.8965897 15.2777778,15.8888889 Z" id="路径" fill="#DDDDDD"></path>
                            <path d="M15.4470085,15.8164609 C19.0008547,12.0260631 20.7777778,9.08065844 20.7777778,6.99231825 C20.7777778,3.80548696 18.3118437,1.22222222 15.2777778,1.22222222 C12.2437118,1.22222222 9.77777778,3.80548699 9.77777778,6.99231825 C9.77777778,9.08065844 11.5547009,12.0260631 15.108547,15.8164609 C15.1931624,15.9130315 15.3382173,15.9130315 15.4470085,15.8164609 C15.4349206,15.8285322 15.4349206,15.8285322 15.4470085,15.8164609 Z" id="路径" fill="#24C688"></path>
                            <path d="M12.2222222,6.11111111 C12.2221381,6.98439895 12.6880282,7.79138619 13.4443765,8.2280544 C14.2007248,8.66472261 15.1326086,8.66472261 15.8889569,8.2280544 C16.6453052,7.79138619 17.1111952,6.98439895 17.1111111,6.11111111 C17.1111952,5.23782327 16.6453052,4.43083603 15.8889569,3.99416782 C15.1326086,3.55749961 14.2007248,3.55749961 13.4443765,3.99416782 C12.6880282,4.43083603 12.2221381,5.23782327 12.2222222,6.11111111 L12.2222222,6.11111111 Z" id="路径" fill="#FFFFFF"></path>
                        </g>
                    </g>
                </g>
            </g>
        </g>
    </g>
</svg>