<?xml version="1.0" encoding="UTF-8"?>
<svg width="20px" height="20px" viewBox="0 0 20 20" version="1.1" xmlns="http://www.w3.org/2000/svg" xmlns:xlink="http://www.w3.org/1999/xlink">
    <!-- Generator: Sketch 60 (88103) - https://sketch.com -->
    <title>icon_cpzx</title>
    <desc>Created with Sketch.</desc>
    <g id="官网改版优化_20191009" stroke="none" stroke-width="1" fill="none" fill-rule="evenodd">
        <g id="深蓝保测评官网_V1.0_首页_1" transform="translate(-1300.000000, -1627.000000)">
            <g id="侧栏" transform="translate(1280.000000, 528.000000)">
                <g id="产品资讯" transform="translate(0.000000, 1080.000000)">
                    <g id="title">
                        <g id="icon_cpzx" transform="translate(20.000000, 19.000000)">
                            <g id="编组" fill="#333333">
                                <path d="M10,1.4289 C5.286,1.4289 1.429,5.2849 1.429,9.9999 C1.429,14.7139 5.286,18.5719 10,18.5719 C14.714,18.5719 18.571,14.7139 18.571,9.9999 C18.571,5.2849 14.714,1.4289 10,1.4289 M10,19.9999 C4.5,19.9999 0,15.4999 0,9.9999 C0,4.4999 4.5,-0.0001 10,-0.0001 C15.5,-0.0001 20,4.4999 20,9.9999 C20,15.4999 15.5,19.9999 10,19.9999" id="Fill-1"></path>
                            </g>
                            <polygon id="Fill-3" fill="#2D7BFF" points="7.7504 8.7375 8.7604 7.7265 12.5484 11.5155 11.5384 12.5255"></polygon>
                            <path d="M8.5357,8.5353 L7.0717,12.8923 L11.4287,11.4293 L12.8927,7.0713 L8.5357,8.5353 Z M4.8217,15.1793 L7.3927,7.4293 L15.1427,4.8573 L12.5717,12.6073 L4.8217,15.1793 Z" id="Fill-5" fill="#333333"></path>
                        </g>
                    </g>
                </g>
            </g>
        </g>
    </g>
</svg>