<?xml version="1.0" encoding="UTF-8"?>
<svg width="32px" height="32px" viewBox="0 0 32 32" version="1.1" xmlns="http://www.w3.org/2000/svg" xmlns:xlink="http://www.w3.org/1999/xlink">
    <!-- Generator: Sketch 59.1 (86144) - https://sketch.com -->
    <title>icon_zhihu</title>
    <desc>Created with Sketch.</desc>
    <g id="官网改版优化_20191009" stroke="none" stroke-width="1" fill="none" fill-rule="evenodd">
        <g id="深蓝保测评官网_V1.0_首页_1" transform="translate(-1131.000000, -1849.000000)">
            <g id="底部导航" transform="translate(0.000000, 1767.000000)">
                <g id="关注我们" transform="translate(1007.000000, 40.000000)">
                    <g id="icon_zhihu" transform="translate(124.000000, 42.000000)">
                        <path d="M16.0011444,0 C7.16366671,0 0,7.16366671 0,16.0007629 C0,24.8374776 7.16366671,32 16.0003815,32 C24.8370962,32 32,24.8367147 32,16.0015258 C32,7.16366671 24.8370962,0 16.0011444,0" id="Fill-1" fill="#4379FE"></path>
                        <g id="编组" transform="translate(8.000000, 8.000000)" fill="#FFFFFF">
                            <path d="M15.6363788,8.5698156 L15.6363788,13.6505914 L14.8270036,13.6935578 L14.0597833,13.7365242 L13.3779727,14.1669289 C12.9945459,14.3395353 12.611119,14.597704 12.4831879,14.6840072 L12.3131018,14.8129064 L12.2702137,14.5547376 C12.2276922,14.4258385 12.1851707,14.1669289 12.1001276,13.9946929 L12.014718,13.6935578 L11.4608385,13.6935578 L11.4608385,8.65574838 C11.4608385,5.85737693 11.5033601,3.57571338 11.5033601,3.57571338 C11.5458816,3.53237658 12.4406664,3.53237658 13.5913135,3.53237658 L15.6363788,3.57571338 L15.6363788,8.5698156 Z M10.0546958,2.24079204 C10.0121743,2.413028 10.0121743,14.8562432 10.0972173,14.9851423 C10.1397388,15.0714455 10.2251484,15.0714455 10.7365064,15.0714455 L11.2903859,15.0714455 L11.4608385,15.6307494 C11.5458816,15.9326254 11.6312912,16.2770973 11.6738127,16.3200637 C11.7163342,16.4059965 11.7163342,16.4922996 11.7163342,16.4922996 C11.7588558,16.4922996 11.8867869,16.4489629 12.014718,16.3200637 C14.0597833,15.0284791 13.8042876,15.0714455 15.5084476,15.0714455 C16.5740516,15.0714455 16.9145904,15.0284791 16.9145904,14.9851423 C16.9574785,14.942176 16.9574785,13.1768499 16.9574785,8.52684921 L17,2.11152246 L13.5059038,2.06855607 C10.4381226,2.15448885 10.0972173,2.15448885 10.0546958,2.24079204 L10.0546958,2.24079204 Z M3.19443461,0.13099405 C2.34217134,0.432499591 2.12919716,0.733634732 1.61783919,2.32709522 C1.3194554,3.27420783 0.808097438,4.60875877 0.424670605,5.38363542 C0.296739472,5.64217457 0.254217949,5.81441054 0.254217949,5.85737693 C0.296739472,5.90034332 0.978550093,5.72810735 1.27693388,5.59883778 C1.40486501,5.55587139 1.70288224,5.29770264 1.87370146,5.12546667 C2.17171868,4.82433153 2.38469286,4.4794892 2.5980336,3.83388213 C2.64055512,3.74757894 2.72559817,3.74757894 3.57786145,3.74757894 L4.47264625,3.74757894 L4.47264625,4.43652281 C4.47264625,5.21176986 4.3876032,7.57973659 4.30219359,7.88124213 L4.25967207,8.09644449 L0.978550093,8.09644449 L0.850985525,8.22534367 C0.68053287,8.39757963 0.424670605,8.91465793 0.339627559,9.25875946 L0.296739472,9.43099543 L2.2142402,9.43099543 L4.13174093,9.47396182 L4.08921941,9.81843375 C4.04669789,11.3685575 3.15191309,13.4783554 1.91622298,14.942176 C1.61783919,15.3725807 0.637644783,16.3630301 0.211696427,16.6645356 C-0.0437992739,16.8364012 -0.0437992739,16.8364012 0.083765294,16.9227044 C0.382149082,17.0953107 1.44738654,16.9656708 2.25676173,16.6645356 C2.5980336,16.535266 2.72559817,16.4922996 3.02398196,16.1478277 C3.70579258,15.4588838 4.3876032,14.2102657 4.81355156,12.9183107 L5.06904726,12.1867709 L5.282388,12.4449396 C5.41031913,12.5742092 5.58040522,12.832378 5.70833636,13.0049843 C6.90150494,14.4688048 7.24241025,14.8992096 7.54079404,15.2866479 C8.00926392,15.9326254 8.13719505,16.1048613 8.2222381,16.0618949 C8.26512619,16.0185581 8.39269075,15.2436815 8.39269075,14.8129064 C8.39269075,13.9946929 8.35016923,13.9517265 7.45538443,12.8753444 C6.51807811,11.7993326 6.00672014,11.1963215 5.9216771,11.1963215 C5.87878901,11.1963215 5.75085788,11.3252207 5.49536218,11.4974566 C5.32490952,11.670063 5.11193534,11.7993326 5.11193534,11.7993326 C5.11193534,11.7993326 5.11193534,11.670063 5.15445687,11.4974566 C5.23986648,11.2392879 5.45284065,10.1629057 5.49536218,9.68916418 L5.5378837,9.43099543 L9.1170229,9.43099543 L9.07450137,9.04355711 C9.03197985,8.82835475 9.03197985,8.52684921 8.94657024,8.35461324 L8.8615272,8.0531077 L5.66581483,8.0531077 L5.70833636,7.45083742 C5.75085788,7.14896148 5.75085788,6.15888247 5.75085788,5.25473625 L5.7933794,3.74757894 L8.77648415,3.74757894 L8.73359606,3.27420783 C8.69107454,2.71416314 8.6060315,2.49896079 8.43521228,2.413028 C8.35016923,2.37006161 7.66835861,2.37006161 5.70833636,2.37006161 L3.10939157,2.37006161 L3.19443461,1.98225289 C3.23695614,1.76705053 3.40740879,1.29330902 3.53533992,0.862904307 C3.70579258,0.432499591 3.83372371,0.0880276586 3.83372371,0.044690867 C3.83372371,-0.0412419161 3.53533992,0.00172447546 3.19443461,0.13099405 L3.19443461,0.13099405 Z" id="Fill-1"></path>
                        </g>
                    </g>
                </g>
            </g>
        </g>
    </g>
</svg>