<?xml version="1.0" encoding="UTF-8"?>
<svg width="22px" height="21px" viewBox="0 0 22 21" version="1.1" xmlns="http://www.w3.org/2000/svg" xmlns:xlink="http://www.w3.org/1999/xlink">
    <!-- Generator: Sketch 60 (88103) - https://sketch.com -->
    <title>icon_qyry</title>
    <desc>Created with Sketch.</desc>
    <g id="官网改版优化_20191009" stroke="none" stroke-width="1" fill="none" fill-rule="evenodd">
        <g id="深蓝保测评官网_V1.0_首页_1" transform="translate(-1299.000000, -1090.000000)">
            <g id="侧栏" transform="translate(1280.000000, 528.000000)">
                <g id="企业荣誉" transform="translate(0.000000, 543.000000)">
                    <g id="title">
                        <g id="icon_qyry" transform="translate(19.999800, 19.000400)">
                            <path d="M3.776,8.564 C2.367,8.485 1.245,7.32 1.245,5.902 L1.245,3.544 L3.767,3.544 L3.776,8.564 Z M10.274,13.208 L10.035,13.208 C7.319,13.208 5.11,10.981 5.11,8.243 L5.11,1.297 L5.155,1.252 L15.184,1.265 C15.189,1.27 15.198,1.281 15.197,1.298 L15.198,8.243 C15.198,10.981 12.989,13.208 10.274,13.208 L10.274,13.208 Z M19.056,3.544 L19.056,5.902 C19.056,7.32 17.934,8.485 16.525,8.564 L16.534,3.544 L19.056,3.544 Z M19.529,2.292 L16.442,2.292 L16.442,1.299 C16.444,0.586 15.867,0.003 15.153,0 L5.154,0 C4.441,0.003 3.863,0.586 3.866,1.298 L3.866,2.292 L0.771,2.292 C0.346,2.292 0,2.679 0,3.156 L0,5.902 C0,8.062 1.762,9.82 3.928,9.82 L4.073,9.82 C4.731,12.348 6.947,14.222 9.531,14.435 L9.531,18.087 L6.375,18.087 C6.082,18.089 5.807,18.205 5.6,18.413 C5.394,18.621 5.281,18.896 5.282,19.19 L5.282,19.34 L14.875,19.34 L15.025,19.339 L15.025,19.19 C15.026,18.896 14.913,18.621 14.707,18.413 C14.501,18.205 14.226,18.089 13.932,18.087 L10.776,18.087 L10.776,14.435 C13.36,14.222 15.577,12.349 16.234,9.82 L16.372,9.82 C18.538,9.82 20.3,8.062 20.3,5.902 L20.3,3.156 C20.3,2.679 19.954,2.292 19.529,2.292 L19.529,2.292 Z" id="Fill-1" fill="#333333"></path>
                            <path d="M10.1418163,8.27421276 C10.2090255,8.27421276 10.2762348,8.29101507 10.3371431,8.3225194 L11.2665209,8.81083655 L11.0890465,7.77539417 C11.0659434,7.63992554 11.1110996,7.50130648 11.2098131,7.4046932 L11.9606664,6.67274256 L10.9220736,6.52047162 C10.7855548,6.50156902 10.6668885,6.41440704 10.6059801,6.29049 L10.1418163,5.35061076 L9.67765247,6.29049 C9.61674409,6.41440704 9.49807778,6.50156902 9.36155901,6.52047162 L8.3229662,6.67274256 L9.07381944,7.4046932 C9.17358316,7.50130648 9.21873937,7.63992554 9.19458605,7.77539417 L9.01711165,8.81083655 L9.94648943,8.3225194 C10.0073978,8.29101507 10.0746071,8.27421276 10.1418163,8.27421276 M11.8241476,9.9996 C11.7569384,9.9996 11.6897291,9.98279769 11.6288208,9.95129336 L10.1418163,9.16998593 L8.65481183,9.95129336 C8.51304234,10.0237533 8.3418688,10.0122017 8.21270104,9.91768874 C8.08353328,9.82527603 8.01842433,9.66460394 8.04572808,9.50813242 L8.32926707,7.85205471 L7.12685173,6.67904342 C7.012386,6.56877826 6.97143036,6.4018053 7.02078715,6.24953437 C7.07014394,6.09726343 7.20141199,5.98594812 7.35893365,5.96389509 L9.02131222,5.72131174 L9.76481445,4.21540467 C9.90658395,3.92766511 10.3770486,3.92766511 10.5188181,4.21540467 L11.2623204,5.72131174 L12.9246989,5.96389509 C13.0822206,5.98594812 13.2134886,6.09726343 13.2628454,6.24953437 C13.3122022,6.4018053 13.2712466,6.56877826 13.1567808,6.67904342 L11.9543655,7.85205471 L12.2379045,9.50813242 C12.2652083,9.66460394 12.2000993,9.82527603 12.0709315,9.91768874 C11.9974214,9.9712461 11.9113096,9.9996 11.8241476,9.9996" id="Fill-3" fill="#2D7BFF"></path>
                        </g>
                    </g>
                </g>
            </g>
        </g>
    </g>
</svg>