<?xml version="1.0" encoding="UTF-8"?>
<svg width="21px" height="21px" viewBox="0 0 21 21" version="1.1" xmlns="http://www.w3.org/2000/svg" xmlns:xlink="http://www.w3.org/1999/xlink">
    <!-- Generator: Sketch 60 (88103) - https://sketch.com -->
    <title>icon_gzwm</title>
    <desc>Created with Sketch.</desc>
    <g id="官网改版优化_20191009" stroke="none" stroke-width="1" fill="none" fill-rule="evenodd">
        <g id="深蓝保测评官网_V1.0_首页_1" transform="translate(-1300.000000, -546.000000)">
            <g id="侧栏" transform="translate(1280.000000, 528.000000)">
                <g id="关注我们">
                    <g id="title">
                        <g id="icon_gzwm" transform="translate(20.000000, 18.000000)">
                            <path d="M20.0437309,7.5872488 C19.9187309,7.1432488 19.5447309,6.8152488 19.0877309,6.7492488 L13.5617309,5.9212488 L11.1447309,0.7052488 C11.0157309,0.4152488 10.7827309,0.1932488 10.4867309,0.0792487997 C10.1917309,-0.0337512003 9.86973088,-0.0257512003 9.57973088,0.1022488 C9.30973088,0.2222488 9.09473088,0.4362488 8.97773088,0.7022488 L6.53773088,5.9412488 L1.01173088,6.7702488 C0.549730882,6.8362488 0.172730882,7.1702488 0.0537308819,7.6132488 C-0.0752691181,8.0262488 0.0317308819,8.4782488 0.334730882,8.7922488 L4.38973088,12.8952488 L4.03273088,15.1742488 C3.97073088,15.5612488 4.23373088,15.9262488 4.62073088,15.9882488 C4.80773088,16.0212488 4.99573088,15.9742488 5.14873088,15.8632488 C5.30273088,15.7522488 5.40373088,15.5872488 5.43473088,15.3992488 L5.80773088,13.0182488 C5.86073088,12.6612488 5.74373088,12.2932488 5.49273088,12.0322488 L1.74273088,8.1642488 L6.91973088,7.3782488 C7.32373088,7.3192488 7.66773088,7.0482488 7.81173088,6.6802488 L10.0737309,1.8372488 L12.3277309,6.6772488 C12.4917309,7.0392488 12.8217309,7.3002488 13.2197309,7.3772488 L18.3977309,8.1642488 L14.6357309,12.0312488 C14.3707309,12.2982488 14.2507309,12.6792488 14.3127309,13.0492488 L15.1967309,18.4612488 L10.6267309,15.9602488 C10.2697309,15.7692488 9.84373088,15.7692488 9.48573088,15.9602488 L4.45673088,18.6862488 C4.09873088,18.8862488 3.96873088,19.3402488 4.16773088,19.6982488 C4.36673088,20.0572488 4.82073088,20.1882488 5.17773088,19.9862488 L10.0737309,17.2942488 L14.9507309,19.9832488 C15.1057309,20.0752488 15.2777309,20.1212488 15.4397309,20.1212488 C15.4697309,20.1212488 15.4987309,20.1202488 15.5267309,20.1172488 C15.7727309,20.1362488 16.0127309,20.0552488 16.2257309,19.9222488 C16.6017309,19.6722488 16.8017309,19.2222488 16.7347309,18.7712488 L15.7457309,13.0062488 L19.8027309,8.8532488 C20.1227309,8.5142488 20.2167309,8.0192488 20.0437309,7.5872488" id="Fill-1" fill="#333333"></path>
                            <path d="M10.0540309,13.1956488 L10.0750309,13.1956488 C10.2780309,13.1836488 10.4630309,13.1166488 10.5890309,12.9756488 L12.9690309,10.5946488 C13.2490309,10.3136488 13.2490309,9.8546488 12.9690309,9.5726488 C12.6870309,9.2926488 12.2280309,9.2926488 11.9460309,9.5726488 L10.0740309,11.4466488 L8.20103088,9.5806488 C7.92003088,9.2996488 7.46103088,9.2996488 7.17903088,9.5806488 C7.04303088,9.7166488 6.96803088,9.8986488 6.96803088,10.0916488 C6.96803088,10.2846488 7.04303088,10.4666488 7.17903088,10.6026488 L9.55403088,12.9766488 C9.68303088,13.1166488 9.86403088,13.1956488 10.0540309,13.1956488" id="Fill-3" fill="#2D7BFF"></path>
                        </g>
                    </g>
                </g>
            </g>
        </g>
    </g>
</svg>