<?xml version="1.0" encoding="UTF-8"?>
<svg width="24px" height="24px" viewBox="0 0 24 24" version="1.1" xmlns="http://www.w3.org/2000/svg" xmlns:xlink="http://www.w3.org/1999/xlink">
    <!-- Generator: Sketch 60 (88103) - https://sketch.com -->
    <title>icon_tel</title>
    <desc>Created with Sketch.</desc>
    <g id="官网改版优化_20191009" stroke="none" stroke-width="1" fill="none" fill-rule="evenodd">
        <g id="深蓝保测评官网_V1.0_首页_1" transform="translate(-1280.000000, -1849.000000)" fill="#333333" fill-rule="nonzero">
            <g id="底部导航" transform="translate(0.000000, 1767.000000)">
                <g id="联系我们" transform="translate(1280.000000, 40.000000)">
                    <g id="编组-2" transform="translate(0.000000, 42.000000)">
                        <g id="icon_tel">
                            <path d="M6.64987036,18.7494828 C6.84968639,18.9871482 7.15255797,19.1129753 7.46204483,19.0868983 C7.77153169,19.0608214 8.0490556,18.8860909 8.20624748,18.6183444 C8.82568443,17.8096407 9.39193394,16.9615878 9.90142257,16.0795378 C10.0085093,15.7495637 9.96088963,15.3889063 9.77182447,15.0979992 C9.40033238,14.6338703 9.30699711,14.0060144 9.52742806,13.453972 C10.2074181,11.8883079 10.9090077,10.3290409 11.6657966,8.7985603 C11.973758,8.19625793 12.5639599,7.7889981 13.2365735,7.71466979 C13.6252204,7.6544634 13.9684531,7.42827516 14.1769597,7.09496111 C14.5609854,6.04136043 14.8701488,4.96198569 15.1021461,3.86487942 C15.0710003,3.55127584 14.8782213,3.27671736 14.5937536,3.14081979 C13.4509704,3.02727317 12.2945874,3.03167109 11.4533998,4.02040632 C8.69883129,7.20838104 6.7237676,10.9930067 5.68428456,15.0752099 C5.45788789,15.9679902 5.28429043,16.8803614 5.83628233,17.7615472 C5.89738374,17.9960723 5.85547593,18.2455139 5.72108403,18.4472249 C5.19789173,19.3432037 5.00629454,20.2563744 5.44548807,21.2379131 C5.88729773,22.1222736 6.64321689,22.8101321 7.56545691,23.1670063 C9.12391998,23.8433583 10.8282139,24.1147164 12.5197841,23.9558355 C19.7708775,23.510045 24.7996036,17.4716834 23.8948169,10.3066514 C23.0456293,3.57861399 16.1197312,-1.24711763 9.51422826,0.285362026 C3.18672128,1.7530721 -0.707221491,7.31485774 0.107166543,13.7918132 C0.339730485,15.7465194 1.18110321,17.5787107 2.51233119,19.0293512 C2.8387264,19.3891821 3.21232091,19.7789988 3.79911228,19.453152 C3.78694576,19.3955 3.76787532,19.3395229 3.74231311,19.2864304 C3.60631511,19.0917219 3.46631717,18.9002119 3.32471925,18.7091018 C1.53674554,16.3018333 0.639958715,13.6250915 1.05355264,10.6221031 C1.85125361,4.67867063 7.22891541,0.444082634 13.1965741,1.06019781 C19.1800862,1.64032512 23.9432162,7.6742888 22.9044314,13.5743154 C21.8740466,19.4263646 17.0949168,23.2609621 11.1294045,22.973897 C9.64102638,22.9023307 8.17424796,22.6324575 6.98306547,21.6173347 C5.99467999,20.7749307 5.8718818,19.7246244 6.64987036,18.7494828 Z M14.703752,7.99693712 C16.0117328,8.5966552 16.536525,8.35956665 17.1037167,6.79750092 C17.761307,4.98955077 17.4333119,4.16114018 16.0177327,3.76412678 L14.703752,7.99693712 Z M8.32944567,19.6554569 C9.32663102,20.3751186 9.91062242,20.3227432 10.7750097,19.3032225 C11.0472433,18.9828134 11.2845772,18.634346 11.4829993,18.2637111 C12.1037902,17.0962599 11.9229928,16.5793029 10.8722083,16.0183665 L8.32944567,19.6554569 Z" id="形状"></path>
                        </g>
                    </g>
                </g>
            </g>
        </g>
    </g>
</svg>