<?xml version="1.0" encoding="UTF-8"?>
<svg width="20px" height="20px" viewBox="0 0 20 20" version="1.1" xmlns="http://www.w3.org/2000/svg" xmlns:xlink="http://www.w3.org/1999/xlink">
    <!-- Generator: Sketch 60 (88103) - https://sketch.com -->
    <title>icon_ppsj</title>
    <desc>Created with Sketch.</desc>
    <g id="官网改版优化_20191009" stroke="none" stroke-width="1" fill="none" fill-rule="evenodd">
        <g id="深蓝保测评官网_V1.0_首页_1" transform="translate(-1300.000000, -868.000000)">
            <g id="侧栏" transform="translate(1280.000000, 528.000000)">
                <g id="品牌数据" transform="translate(0.000000, 321.000000)">
                    <g id="title">
                        <g id="icon_ppsj" transform="translate(20.000000, 19.000000)">
                            <g id="编组" fill="#333333">
                                <path d="M10,1.4288 C5.286,1.4288 1.429,5.2848 1.429,9.9998 C1.429,14.7138 5.286,18.5718 10,18.5718 C14.714,18.5718 18.571,14.7138 18.571,9.9998 C18.571,5.2848 14.714,1.4288 10,1.4288 M10,19.9998 C4.5,19.9998 0,15.4998 0,9.9998 C0,4.4998 4.5,-0.0002 10,-0.0002 C15.5,-0.0002 20,4.4998 20,9.9998 C20,15.4998 15.5,19.9998 10,19.9998" id="Fill-1"></path>
                            </g>
                            <path d="M6.5037,5.3946 L5.2697,5.3946 L5.2697,13.9886 C5.2697,14.3286 5.5457,14.6056 5.8867,14.6056 L14.4807,14.6056 L14.4807,13.3716 L6.5037,13.3716 L6.5037,5.3946 Z" id="Fill-3" fill="#333333"></path>
                            <path d="M10.0457,9.6671 L11.2007,10.9001 C11.3147,11.0211 11.4747,11.0931 11.6347,11.0961 C11.8017,11.0841 11.9617,11.0391 12.0857,10.9161 L14.7307,8.2911 L13.8617,7.4151 L11.6677,9.5931 L10.5107,8.3581 C10.3977,8.2371 10.2367,8.1661 10.0737,8.1631 C9.9077,8.1571 9.7437,8.2241 9.6237,8.3441 L7.2107,10.7571 L8.0837,11.6301 L10.0457,9.6671 Z" id="Fill-5" fill="#4379FE"></path>
                        </g>
                    </g>
                </g>
            </g>
        </g>
    </g>
</svg>