<?xml version="1.0" encoding="UTF-8"?>
<svg width="20px" height="21px" viewBox="0 0 20 21" version="1.1" xmlns="http://www.w3.org/2000/svg" xmlns:xlink="http://www.w3.org/1999/xlink">
    <!-- Generator: Sketch 60 (88103) - https://sketch.com -->
    <title>icon_slbyp</title>
    <desc>Created with Sketch.</desc>
    <g id="官网改版优化_20191009" stroke="none" stroke-width="1" fill="none" fill-rule="evenodd">
        <g id="深蓝保测评官网_V1.0_首页_1" transform="translate(-1300.000000, -1256.000000)">
            <g id="侧栏" transform="translate(1280.000000, 528.000000)">
                <g id="深蓝保音频" transform="translate(0.000000, 710.000000)">
                    <g id="title">
                        <g id="icon_slbyp" transform="translate(20.000000, 18.000000)">
                            <g id="编组" fill="#333333">
                                <path d="M10,2.4284 C5.286,2.4284 1.429,6.2854 1.429,10.9994 C1.429,15.7144 5.286,19.5714 10,19.5714 C14.714,19.5714 18.571,15.7144 18.571,10.9994 C18.571,6.2854 14.714,2.4284 10,2.4284 M10,20.9994 C4.5,20.9994 0,16.4994 0,10.9994 C0,5.4994 4.5,0.9994 10,0.9994 C15.5,0.9994 20,5.4994 20,10.9994 C20,16.4994 15.5,20.9994 10,20.9994" id="Fill-1"></path>
                            </g>
                            <path d="M5.1713,15.9762 C4.7963,15.1222 5.2143,13.9562 6.1003,13.3712 C6.5153,13.0972 6.9593,13.0002 7.3513,13.0592 L7.3513,7.3512 C7.3513,7.0212 7.5353,6.7332 7.7973,6.6542 L12.4883,5.2312 C12.6633,5.1782 12.8493,5.2242 12.9913,5.3632 C13.1333,5.4982 13.2163,5.7072 13.2163,5.9282 L13.2163,6.4902 L10.1283,7.4282 C10.1183,7.4302 10.1103,7.4342 10.1003,7.4392 L8.5273,7.9172 L8.5273,14.5352 C8.5273,14.5512 8.5253,14.5652 8.5253,14.5802 C8.5103,15.2852 8.1133,16.0332 7.4583,16.4632 C6.5703,17.0472 5.5463,16.8282 5.1713,15.9762" id="Fill-3" fill="#333333"></path>
                            <path d="M12.0466,8.3249 L13.2206,7.9679 L13.2206,13.1079 C13.2206,13.8229 12.8186,14.5879 12.1536,15.0279 C11.2656,15.6119 10.2416,15.3939 9.8666,14.5429 C9.4936,13.6889 9.9096,12.5239 10.7956,11.9379 C11.2096,11.6659 11.6536,11.5669 12.0466,11.6259 L12.0466,8.3249 Z" id="Fill-5" fill="#2D7BFF"></path>
                        </g>
                    </g>
                </g>
            </g>
        </g>
    </g>
</svg>