<?xml version="1.0" encoding="UTF-8"?>
<svg width="58px" height="50px" viewBox="0 0 58 50" version="1.1" xmlns="http://www.w3.org/2000/svg" xmlns:xlink="http://www.w3.org/1999/xlink">
    <!-- Generator: Sketch 61.2 (89653) - https://sketch.com -->
    <title>logo_pc_1</title>
    <desc>Created with Sketch.</desc>
    <g id="V2.4.0_PC" stroke="none" stroke-width="1" fill="none" fill-rule="evenodd">
        <g id="深蓝保测评官网_V2.4.0_首页_1" transform="translate(-360.000000, -14.000000)" fill="#0087FF">
            <g id="顶部航栏">
                <g id="logo_pc" transform="translate(360.000000, 14.000000)">
                    <g id="logo_pc_1">
                        <path d="M31.0813953,-7.10542736e-14 L50.4211628,3.67511628 L53.1597674,3.67511628 L53.1597674,14.2546512 L57.0430233,14.2546512 L57.0430233,21.7260465 L53.1597674,21.7260465 L53.1597674,22.6625581 L57.6009302,22.6625581 L57.6009302,25.4716279 L53.1597674,25.4716279 L53.1597674,34.1630233 C53.1597674,35.5913953 52.5493023,36.9565116 51.4846512,37.9088372 C47.8018605,41.2030233 38.464186,48.9565116 31.3106977,49.8072093 L31.3106977,49.8072093 L31.0813953,49.8344186 L30.852093,49.8072093 C23.6983721,48.9565116 14.3606977,41.2030233 10.677907,37.9088372 C9.61348837,36.9565116 9.0027907,35.5913953 9.0027907,34.1630233 L9.0027907,34.1630233 L9.0027907,25.4716279 L4.1455814,25.4716279 L4.1455814,22.762093 L9.0027907,22.762093 L9.0027907,21.7051163 L12.8869767,21.7051163 L12.8869767,22.762093 L17.135814,22.762093 L17.135814,25.4716279 L12.8869767,25.4716279 L12.8869767,34.1630233 C12.8869767,34.4874419 13.025814,34.7974419 13.2674419,35.0137209 C15.8939535,37.3630233 24.8630233,45.0197674 31.0813953,45.92 C37.2995349,45.0197674 46.2686047,37.3630233 48.8951163,35.0137209 C49.1367442,34.7974419 49.2755814,34.4874419 49.2755814,34.1630233 L49.2755814,34.1630233 L49.2755814,25.4716279 L44.8497674,25.4716279 L44.8497674,22.6625581 L49.2755814,22.6625581 L49.2755814,21.7260465 L45.4076744,21.7260465 L45.4076744,14.2546512 L49.2755814,14.2546512 L49.2755814,7.41093023 L31.0813953,3.95372093 L12.8869767,7.41093023 L12.8869767,14.2546512 L17.1160465,14.2546512 L17.1160465,17.9206977 L13.6493023,17.9206977 L13.6493023,16.8048837 L7.65209302,16.8048837 L7.65209302,17.9206977 L4.18534884,17.9206977 L4.18534884,14.2546512 L9.0027907,14.2546512 L9.0027907,3.67511628 L11.7413953,3.67511628 L31.0813953,-7.10542736e-14 Z M44.9453488,14.2546512 C44.8037209,15.2146512 44.6562791,16.1383721 44.502093,17.024186 C44.3427907,17.9404651 44.1434884,18.9102326 43.9044186,19.9330233 L43.9044186,19.9330233 L43.9044186,32.4051163 L14.3902326,32.4051163 C14.2972093,32.0465116 14.204186,31.5713953 14.1113953,30.9804651 C14.0183721,30.3895349 13.9286047,29.7751163 13.8423256,29.1376744 C13.755814,28.5002326 13.6860465,27.8893023 13.6332558,27.3046512 C13.6044186,26.9883721 13.5818605,26.7102326 13.5648837,26.4639535 L13.5648837,26.4639535 L16.695814,26.4639535 C16.7232558,26.7102326 16.757907,26.9883721 16.8009302,27.3046512 C16.8806977,27.8893023 16.9734884,28.5002326 17.08,29.1376744 C17.0981395,29.2460465 17.1174419,29.3495349 17.135814,29.4565116 L17.135814,29.4565116 L20.4069767,29.4565116 L20.4069767,25.4716279 L36.804186,25.4716279 L36.804186,29.4565116 L40.4576744,29.4565116 L40.4576744,23.5662791 L39.3618605,23.5662791 C39.6139535,22.6232558 39.8465116,21.384186 40.0590698,20.5006977 C40.2716279,19.6174419 40.464186,18.784186 40.6369767,18.0002326 C40.8095349,17.2167442 40.955814,16.4993023 41.0753488,15.8486047 C41.1867442,15.2411628 41.274186,14.7118605 41.3395349,14.2546512 L41.3395349,14.2546512 Z M3.3472093,19.944186 L3.3472093,32.4051163 L6.70574707e-14,32.4051163 L6.70574707e-14,19.944186 L3.3472093,19.944186 Z M48.9580233,26.4639535 C48.932907,26.702093 48.9017442,26.972093 48.8645349,27.2746512 C48.7912791,27.865814 48.7080233,28.4834884 48.6154651,29.1276744 C48.5222093,29.772093 48.4224419,30.3895349 48.3166279,30.9806977 C48.2098837,31.5713953 48.1103488,32.0465116 48.0177907,32.4051163 L48.0177907,32.4051163 L44.550814,32.4051163 C44.657093,32.0465116 44.7763953,31.5581395 44.9094186,30.9406977 C45.0422093,30.3232558 45.1684884,29.6890698 45.2880233,29.037907 C45.4077907,28.3874419 45.5136047,27.7697674 45.6068605,27.1848837 C45.6501163,26.9125581 45.6859302,26.6730233 45.7147674,26.4639535 L45.7147674,26.4639535 Z M56.7375116,26.4639767 C56.7684419,26.7904884 56.8026279,27.1244419 56.8440233,27.4739767 C56.9100698,28.0386279 56.9896047,28.6030465 57.0828605,29.1674651 C57.1756512,29.7321163 57.2786744,30.2897907 57.3916977,30.841186 C57.5044884,31.3921163 57.6275116,31.9135116 57.7603023,32.4051395 L57.7603023,32.4051395 L54.393093,32.4051395 C54.1670465,31.3158372 53.9812326,30.2497907 53.8354186,29.2074651 C53.7137907,28.3418837 53.6265814,27.4253721 53.5693721,26.4639767 L53.5693721,26.4639767 Z M8.39502326,26.4640233 C8.3675814,26.7103023 8.33293023,26.9882093 8.28967442,27.3047209 C8.21013953,27.8891395 8.12339535,28.5000698 8.03083721,29.1377442 C7.9375814,29.775186 7.83804651,30.3928605 7.732,30.9905349 C7.62548837,31.5884419 7.52572093,32.0596047 7.43293023,32.4049535 L7.43293023,32.4049535 L4.00618605,32.4049535 C4.11246512,32.0463488 4.232,31.5612326 4.3647907,30.9505349 C4.49734884,30.3396047 4.62688372,29.708907 4.75316279,29.0579767 C4.8792093,28.4072791 4.98897674,27.7926279 5.082,27.215186 C5.12781395,26.9296047 5.16548837,26.6796047 5.19525581,26.4640233 L5.19525581,26.4640233 Z M24.89,27.5634884 L23.6346512,27.5634884 L23.6346512,29.4565116 L24.89,29.4565116 L24.89,27.5634884 Z M29.2530233,27.5634884 L27.997907,27.5634884 L27.997907,29.4565116 L29.2530233,29.4565116 L29.2530233,27.5634884 Z M33.5565116,27.5634884 L32.3809302,27.5634884 L32.3809302,29.4565116 L33.5565116,29.4565116 L33.5565116,27.5634884 Z M23.0569767,18.9467442 L23.0569767,24.4439535 L20.0286047,24.4439535 L20.0286047,18.9467442 L23.0569767,18.9467442 Z M27.2209302,18.9467442 L27.2209302,24.4439535 L23.8737209,24.4439535 L23.8737209,18.9467442 L27.2209302,18.9467442 Z M37.6609302,18.9467674 L37.6609302,21.7260698 L35.287907,21.7260698 C35.3551163,21.8639767 36.4490698,24.2518837 36.5346512,24.4439767 L36.5346512,24.4439767 L33.3255814,24.4439767 C33.2572093,24.2830465 32.1023256,21.7660698 31.9825581,21.5267674 C31.77,22.0318837 30.8467442,24.2539767 30.7462791,24.4439767 L30.7462791,24.4439767 L27.2209302,24.4439767 C27.3655814,24.1644419 27.7934884,22.9937442 27.9381395,22.6923488 C28.1772093,22.1942093 28.4062791,21.6895581 28.6253488,21.1781628 C28.8446512,20.667 29.0439535,20.1553721 29.2232558,19.6439767 C29.3072093,19.4046744 29.3867442,19.1730465 29.4632558,18.9467674 L29.4632558,18.9467674 L37.6609302,18.9467674 Z M10.2294884,18.9467442 C10.193907,19.0330233 10.1608837,19.1172093 10.1227442,19.2055814 C9.97646512,19.544186 9.82065116,19.8830233 9.65460465,20.2218605 C9.48832558,20.5604651 9.32227907,20.8860465 9.15623256,21.197907 C9.05483721,21.3886047 8.95506977,21.5639535 8.856,21.7274419 L8.856,21.7274419 L4.23786047,21.7274419 C4.65972093,21.1825581 5.03925581,20.6534884 5.37088372,20.142093 C5.62088372,19.7562791 5.84553488,19.3569767 6.04972093,18.9467442 L6.04972093,18.9467442 Z M15.5568372,18.9466744 C15.7866047,19.279 16.0173023,19.6324884 16.2491628,20.0124884 C16.5947442,20.5792326 16.913814,21.1513256 17.215907,21.7273721 L17.215907,21.7273721 L12.9133488,21.7273721 C12.6552093,21.1757442 12.3703256,20.6241163 12.0552093,20.0724884 C11.832186,19.6822558 11.6066047,19.3083023 11.3789302,18.9466744 L11.3789302,18.9466744 Z M53.7753488,17.0039535 L48.6948837,17.0039535 L48.6948837,18.8767442 L53.7753488,18.8767442 L53.7753488,17.0039535 Z M3.3472093,14.2546512 L3.3472093,17.9206977 L6.70574707e-14,17.9206977 L6.70574707e-14,14.2546512 L3.3472093,14.2546512 Z M26.8226047,14.2546279 L26.8226047,14.7327674 L30.4884186,14.7327674 L30.4884186,14.2546279 L34.1144651,14.2546279 L34.1144651,14.7327674 L37.6009767,14.7327674 L37.6009767,17.283 L34.1144651,17.283 L34.1144651,17.9206744 L30.4884186,17.9206744 L30.4884186,17.283 L26.8226047,17.283 L26.8226047,17.9206744 L23.1963256,17.9206744 L23.1963256,17.283 L19.7095814,17.283 L19.7095814,14.7327674 L23.1963256,14.7327674 L23.1963256,14.2546279 L26.8226047,14.2546279 Z" id="形状结合"></path>
                    </g>
                </g>
            </g>
        </g>
    </g>
</svg>