<?xml version="1.0" encoding="UTF-8"?>
<svg width="111px" height="30px" viewBox="0 0 111 30" version="1.1" xmlns="http://www.w3.org/2000/svg" xmlns:xlink="http://www.w3.org/1999/xlink">
    <!-- Generator: Sketch 61.2 (89653) - https://sketch.com -->
    <title>logo_pc_2</title>
    <desc>Created with Sketch.</desc>
    <g id="V2.4.0_PC" stroke="none" stroke-width="1" fill="none" fill-rule="evenodd">
        <g id="深蓝保测评官网_V2.4.0_首页_1" transform="translate(-431.000000, -24.000000)" fill="#0C264A">
            <g id="顶部航栏">
                <g id="logo_pc" transform="translate(360.000000, 14.000000)">
                    <g id="logo_pc_2" transform="translate(70.622372, 9.441163)">
                        <path d="M7.54018605,17.2076744 L7.54018605,19.0362791 L12.4634419,19.0362791 L12.4634419,26.2665116 L7.54018605,26.2665116 L7.54018605,29.952093 L5.88018605,29.952093 L5.88018605,26.2665116 L1.02716279,26.2665116 L1.02716279,19.0362791 L5.88018605,19.0362791 L5.88018605,17.2076744 L7.54018605,17.2076744 Z M25.7898605,21.118093 C25.6889302,21.6553023 25.5789302,22.2062326 25.4540465,22.7778605 C25.3084651,23.443907 25.1517209,24.1071628 24.9828837,24.7685581 C24.813814,25.4297209 24.6428837,26.071814 24.4693953,26.6955349 C24.2956744,27.3192558 24.1249767,28.0106512 23.955907,28.5450698 L23.955907,28.5450698 L27.6977674,28.5450698 L27.6977674,29.9520465 L15.0377674,29.9520465 L15.0377674,28.5450698 L22.1693953,28.5450698 C22.3475349,28.0013488 22.528,27.2983256 22.7107907,26.6604186 C22.8940465,26.0227442 23.0696279,25.3687907 23.2384651,24.698093 C23.4075349,24.0276279 23.5642791,23.3641395 23.7096279,22.7076279 C23.8333488,22.1504186 23.9368372,21.6215814 24.0231163,21.118093 L24.0231163,21.118093 Z M85.891093,19.823907 L85.891093,28.6015814 L86.4620233,28.6015814 L86.4620233,29.9520465 L84.4703953,29.9520465 L84.4703953,21.118093 L83.3450465,21.118093 L83.3450465,19.823907 L85.891093,19.823907 Z M101.66607,17.1883023 L100.942349,19.2892326 L100.942349,29.9520233 L99.4793256,29.9520233 L99.4793256,23.5376047 L99.3821163,23.861093 L97.8946744,23.861093 L100.092581,17.1987674 L101.66607,17.1883023 Z M93.2480233,17.2076279 L93.4168605,18.3892558 L96.1936047,18.3892558 L96.1936047,19.7255349 L93.6136047,19.7255349 C93.7168605,20.3162326 93.8268605,20.9141395 93.9443023,21.5190233 C94.0615116,22.123907 94.1854651,22.7313488 94.317093,23.3406512 C94.4482558,22.9843721 94.5631395,22.6350698 94.6615116,22.2927442 C94.7601163,21.9506512 94.9089535,21.418093 94.9840698,21.118093 L94.9840698,21.118093 L96.1936047,21.118093 C96.0247674,21.7932093 95.7705814,22.696 95.555,23.4041395 C95.3389535,24.1120465 95.0952326,24.8176279 94.8233721,25.5208837 C95.0296512,26.3276279 95.242907,27.1034419 95.4633721,27.8490233 C95.6836047,28.5946047 95.9159302,29.2955349 96.1598837,29.9520465 L96.1598837,29.9520465 L94.6545349,29.9520465 C94.5231395,29.5862326 94.3989535,29.2111163 94.2817442,28.8266977 C94.1645349,28.4422791 94.0447674,28.043907 93.9231395,27.6308837 C93.7261628,28.0529767 93.5175581,28.4562326 93.2973256,28.8406512 C93.0766279,29.2250698 92.849186,29.5955349 92.6147674,29.9520465 L92.6147674,29.9520465 L91.0956977,29.9520465 C91.5180233,29.3613488 91.9254651,28.6976279 92.3196512,27.9615814 C92.7133721,27.2253023 93.0789535,26.4587907 93.4168605,25.661814 C93.1917442,24.7143721 92.9826744,23.743907 92.790814,22.7499535 C92.5984884,21.756 92.4226744,20.7478605 92.2633721,19.7255349 L92.2633721,19.7255349 L88.9996512,19.7255349 L88.9996512,21.118093 L91.8554651,21.118093 L91.8554651,26.6522791 C91.8554651,27.0743721 91.8180233,27.466 91.7426744,27.8269302 C91.6675581,28.188093 91.5645349,28.513907 91.4333721,28.8046047 L91.4333721,28.8046047 L89.8436047,28.8046047 C90.0031395,28.5887907 90.1603488,28.298093 90.315,27.9325116 C90.4698837,27.5669302 90.5473256,27.140186 90.5473256,26.6522791 L90.5473256,26.6522791 L90.5473256,22.3278605 L88.9996512,22.3278605 L88.9996512,26.2383256 C88.9901163,27.148093 88.9363953,27.9078605 88.8380233,28.5171628 C88.7394186,29.1266977 88.6247674,29.6048372 88.4933721,29.9520465 L88.4933721,29.9520465 L86.8475581,29.9520465 C86.9412791,29.7736744 87.0305814,29.5462326 87.1147674,29.2697209 C87.199186,28.9932093 87.2743023,28.688093 87.3398837,28.3555349 C87.4054651,28.0227442 87.4594186,27.6683256 87.5017442,27.2934419 C87.5440698,26.9183256 87.565,26.5434419 87.565,26.1678605 L87.565,26.1678605 L87.565,18.3892558 L92.0512791,18.3892558 L91.9115116,17.2076279 L93.2480233,17.2076279 Z M47.9852093,17.1935349 L47.6898605,18.3893488 L53.7807907,18.3893488 L53.7807907,19.7537674 L47.3240465,19.7537674 L46.902186,21.118186 L54.4807907,21.118186 L54.4807907,22.4826047 L46.438,22.4826047 C46.3535814,22.7170233 46.2689302,22.9493488 46.1845116,23.1786512 C46.1005581,23.4088837 46.0110233,23.6314419 45.9175349,23.8470233 L45.9175349,23.8470233 L54.1463721,23.8470233 L50.1126512,29.1744651 L51.122186,29.951907 L48.7026512,29.951907 L43.6105581,25.9430698 L45.9175349,25.9430698 L48.800093,28.1633023 L51.1642791,25.1972558 L43.5824186,25.1972558 C43.7884651,24.7567907 43.9831163,24.3109767 44.1661395,23.8612093 C44.3489302,23.4109767 44.5247442,22.9516744 44.6935814,22.4826047 L44.6935814,22.4826047 L42.0068372,22.4826047 L42.0068372,21.118186 L45.1719535,21.118186 C45.2470698,20.8928372 45.3193953,20.6658605 45.390093,20.4358605 C45.4603256,20.206093 45.5328837,19.9788837 45.608,19.7537674 L45.608,19.7537674 L42.7068372,19.7537674 L42.7068372,18.3893488 L45.9877674,18.3893488 L46.2970698,17.1935349 L47.9852093,17.1935349 Z M62.1641628,17.1935349 L62.1641628,28.5314419 L63.8383488,28.5314419 L63.8383488,17.1935349 L65.3855581,17.1935349 L65.3855581,28.5314419 L69.3943953,28.5314419 L69.3943953,29.951907 L56.6220698,29.951907 L56.6220698,28.5314419 L60.6169535,28.5314419 L60.6169535,17.1935349 L62.1641628,17.1935349 Z M76.7525116,17.1883721 L76.7525116,29.937907 L75.9873953,29.937907 L75.9873953,17.1883721 L76.7525116,17.1883721 Z M35.4141395,17.1883721 L35.4141395,29.937907 L34.6490233,29.937907 L34.6490233,17.1883721 L35.4141395,17.1883721 Z M110.732744,24.8739535 L110.732744,29.937907 L102.208326,29.937907 L102.208326,24.8739535 L110.732744,24.8739535 Z M109.283674,26.1118605 L103.657163,26.1118605 L103.657163,28.7 L109.283674,28.7 L109.283674,26.1118605 Z M58.6474186,18.3893023 L59.4069535,27.0793023 L57.9160233,27.0793023 L57.2125349,18.3893023 L58.6474186,18.3893023 Z M68.8316977,18.3892558 L68.1284419,27.0792558 L66.6370465,27.0792558 L67.396814,18.3892558 L68.8316977,18.3892558 Z M18.6875349,21.1181395 L20.1361395,27.0793023 L18.3263721,27.0793023 L16.938,21.1181395 L18.6875349,21.1181395 Z M10.8315814,20.4290698 L7.54018605,20.4290698 L7.54018605,24.8739535 L10.8315814,24.8739535 L10.8315814,20.4290698 Z M5.88018605,20.4290698 L2.65902326,20.4290698 L2.65902326,24.8739535 L5.88018605,24.8739535 L5.88018605,20.4290698 Z M110.732744,22.6232558 L110.732744,23.8611628 L102.208326,23.8611628 L102.208326,22.6232558 L110.732744,22.6232558 Z M109.275767,20.4006977 L109.275767,21.6244186 L103.651581,21.6244186 L103.651581,20.4006977 L109.275767,20.4006977 Z M22.0006977,17.2076512 C22.0569767,17.367186 22.1153488,17.5476512 22.1765116,17.7492791 C22.2374419,17.950907 22.2962791,18.1734651 22.3523256,18.4174186 L22.3523256,18.4174186 L27.3318605,18.4174186 L27.3318605,19.8520698 L15.3893023,19.8520698 L15.3893023,18.4174186 L20.4111628,18.4174186 C20.3639535,18.2018372 20.3148837,17.9932326 20.2632558,17.7916047 C20.2118605,17.5897442 20.157907,17.395093 20.1016279,17.2076512 L20.1016279,17.2076512 Z M107.019233,17.2076744 C107.066209,17.3390698 107.110628,17.484186 107.152953,17.6437209 C107.195047,17.8030233 107.239465,17.9672093 107.286442,18.1360465 L107.286442,18.1360465 L110.732721,18.1360465 L110.732721,19.3881395 L102.208302,19.3881395 L102.208302,18.1360465 L105.570395,18.1360465 C105.542256,17.9767442 105.509233,17.824186 105.471791,17.6788372 C105.434349,17.5337209 105.392023,17.3762791 105.345279,17.2076744 L105.345279,17.2076744 Z M85.3285349,17.2075349 L85.891093,19.0326512 L84.481093,19.0326512 L83.9499302,17.2075349 L85.3285349,17.2075349 Z M95.5227674,17.2076047 L95.7736977,17.9834186 L94.5313721,17.9834186 L94.313,17.2076047 L95.5227674,17.2076047 Z M4.13651163,3.50244186 C5.17744186,3.50244186 6.02139535,3.92430233 6.65418605,4.41662791 L5.89465116,5.41523256 C5.36023256,5.02151163 4.81162791,4.74011628 4.1644186,4.74011628 C3.32069767,4.74011628 2.92697674,5.1622093 2.92697674,5.69662791 C2.92697674,6.3577907 3.72860465,6.61081395 4.57255814,6.92034884 C5.6555814,7.32802326 6.85116279,7.80639535 6.85116279,9.26918605 C6.85116279,10.5631395 5.82418605,11.6180233 3.91139535,11.6180233 C2.84232558,11.6180233 1.74534884,11.1677907 1,10.5489535 L1.75953488,9.50802326 C2.44860465,10.0568605 3.12372093,10.3943023 3.95372093,10.3943023 C4.88209302,10.3943023 5.31790698,9.94430233 5.31790698,9.35337209 C5.31790698,8.65011628 4.44581395,8.34081395 3.60209302,8.01732558 C2.57534884,7.62360465 1.39372093,7.075 1.39372093,5.76686047 C1.39372093,4.47290698 2.43465116,3.50244186 4.13651163,3.50244186 Z M94.3030233,3.50248837 C96.215814,3.50248837 97.945814,4.9934186 97.945814,7.58132558 C97.945814,10.141093 96.215814,11.6180698 94.3030233,11.6180698 C92.39,11.6180698 90.66,10.141093 90.66,7.58132558 C90.66,4.9934186 92.39,3.50248837 94.3030233,3.50248837 Z M101.448977,3.50248837 L101.448977,4.66504651 C102.109907,3.9617907 102.77107,3.50248837 103.727349,3.50248837 C104.880605,3.50248837 105.528047,4.03690698 105.865488,4.92295349 C106.624791,4.10713953 107.412698,3.50248837 108.383163,3.50248837 C110.000605,3.50248837 110.76014,4.59946512 110.76014,6.56853488 L110.76014,11.6180698 L109.142698,11.6180698 L109.142698,6.76551163 C109.142698,5.42923256 108.720605,4.89481395 107.848512,4.89481395 C107.31386,4.89481395 106.751535,5.24644186 106.104558,5.94969767 L106.104558,11.6180698 L104.487116,11.6180698 L104.487116,6.76551163 C104.487116,5.42923256 104.078977,4.89481395 103.19293,4.89481395 C102.672698,4.89481395 102.095953,5.24644186 101.448977,5.94969767 L101.448977,11.6180698 L99.8454884,11.6180698 L99.8454884,3.50248837 L101.448977,3.50248837 Z M26.8539302,3.50248837 L26.8539302,4.66132558 C27.5711395,3.97225581 28.2462558,3.50248837 29.3011395,3.50248837 C30.9467209,3.50248837 31.6783488,4.59946512 31.6783488,6.56853488 L31.6783488,11.6180698 L30.0606744,11.6180698 L30.0606744,6.76551163 C30.0606744,5.42923256 29.6667209,4.89481395 28.7527674,4.89481395 C28.0355581,4.89481395 27.5427674,5.26062791 26.8539302,5.94969767 L26.8539302,11.6180698 L25.2504419,11.6180698 L25.2504419,3.50248837 L26.8539302,3.50248837 Z M47.9113256,3.50248837 L47.9113256,4.66132558 C48.6285349,3.97225581 49.3036512,3.50248837 50.3585349,3.50248837 C52.0041163,3.50248837 52.7355116,4.59946512 52.7355116,6.56853488 L52.7355116,11.6180698 L51.1180698,11.6180698 L51.1180698,6.76551163 C51.1180698,5.42923256 50.7241163,4.89481395 49.8101628,4.89481395 C49.0929535,4.89481395 48.6003953,5.26062791 47.9113256,5.94969767 L47.9113256,11.6180698 L46.3078372,11.6180698 L46.3078372,3.50248837 L47.9113256,3.50248837 Z M66.7038372,3.5025814 C68.630814,3.5025814 69.5168605,4.72606977 69.5168605,6.77955814 L69.5168605,11.6181628 L67.8994186,11.6181628 L67.8994186,10.6432791 C67.1963953,11.2481628 66.4789535,11.6181628 65.5503488,11.6181628 C64.2143023,11.6181628 63.2719767,10.7458372 63.2719767,9.38165116 C63.2719767,7.72211628 64.6784884,6.86397674 67.8994186,6.51234884 C67.8854651,5.61211628 67.5619767,4.82444186 66.4226744,4.82444186 C65.607093,4.82444186 64.8473256,5.19002326 64.1863953,5.61211628 L63.5815116,4.51513953 C64.3833721,4.00862791 65.4661628,3.5025814 66.7038372,3.5025814 Z M10.1712791,1.00016279 L10.1712791,3.19295349 L10.1147674,4.72597674 C10.7901163,4.079 11.5636047,3.50248837 12.6184884,3.50248837 C14.2640698,3.50248837 14.9954651,4.59946512 14.9954651,6.56853488 L14.9954651,6.56853488 L14.9954651,11.6180698 L13.3780233,11.6180698 L13.3780233,6.76551163 C13.3780233,5.42923256 12.9843023,4.89481395 12.0701163,4.89481395 C11.3526744,4.89481395 10.8603488,5.26062791 10.1712791,5.94969767 L10.1712791,5.94969767 L10.1712791,11.6180698 L8.5677907,11.6180698 L8.5677907,1.00016279 L10.1712791,1.00016279 Z M74.9048605,3.50248837 C76.8176512,3.50248837 78.5476512,4.9934186 78.5476512,7.58132558 C78.5476512,10.141093 76.8176512,11.6180698 74.9048605,11.6180698 C72.9918372,11.6180698 71.2618372,10.141093 71.2618372,7.58132558 C71.2618372,4.9934186 72.9918372,3.50248837 74.9048605,3.50248837 Z M81.1647209,9.33948837 C81.7696047,9.33948837 82.2477442,9.83181395 82.2477442,10.4927442 C82.2477442,11.153907 81.7696047,11.618093 81.1647209,11.618093 C80.5598372,11.618093 80.0816977,11.153907 80.0816977,10.4927442 C80.0816977,9.83181395 80.5598372,9.33948837 81.1647209,9.33948837 Z M56.6465814,1 L56.6465814,4.51511628 C57.3075116,3.93837209 58.1372791,3.50255814 58.9528605,3.50255814 C60.9084419,3.50255814 62.0193721,5.06372093 62.0193721,7.44069767 C62.0193721,10.0990698 60.4300698,11.6181395 58.6858837,11.6181395 C57.9826279,11.6181395 57.3075116,11.3546512 56.6465814,10.7218605 L56.6465814,10.7218605 L56.6465814,11.6181395 L55.0854186,11.6181395 L55.0854186,1 L56.6465814,1 Z M87.5789302,3.50248837 C88.5635814,3.50248837 89.2810233,3.8962093 89.8433488,4.38853488 L89.0417209,5.4434186 C88.6198605,5.06365116 88.183814,4.83876744 87.6491628,4.83876744 C86.3552093,4.83876744 85.4270698,5.93574419 85.4270698,7.58132558 C85.4270698,9.21295349 86.3131163,10.2957442 87.6070698,10.2957442 C88.2540465,10.2957442 88.8305581,9.98644186 89.2947442,9.59248837 L89.955907,10.6615581 C89.2524186,11.2945814 88.3384651,11.6180698 87.452186,11.6180698 C85.3568372,11.6180698 83.7531163,10.141093 83.7531163,7.58132558 C83.7531163,4.9934186 85.5396279,3.50248837 87.5789302,3.50248837 Z M35.6313721,1.00002326 L35.6313721,9.70490698 C35.6313721,10.141186 35.8281163,10.2958372 36.025093,10.2958372 C36.0953256,10.2958372 36.3625349,10.2553721 36.5032326,10.2272326 L36.5032326,10.2272326 L36.5032326,11.4914186 C36.3062558,11.5618837 36.025093,11.6181628 35.6313721,11.6181628 C34.4636977,11.6181628 34.0276512,10.8725814 34.0276512,9.62072093 L34.0276512,9.62072093 L34.0276512,1.00002326 L35.6313721,1.00002326 Z M41.2012326,3.5025814 C43.1282093,3.5025814 44.0142558,4.72606977 44.0142558,6.77955814 L44.0142558,11.6181628 L42.396814,11.6181628 L42.396814,10.6435116 C41.6937907,11.2483953 40.9763488,11.6181628 40.0477442,11.6181628 C38.7116977,11.6181628 37.7693721,10.7458372 37.7693721,9.38165116 C37.7693721,7.72211628 39.1758837,6.86397674 42.396814,6.51234884 C42.3826279,5.61211628 42.0593721,4.82444186 40.9198372,4.82444186 C40.1044884,4.82444186 39.3447209,5.19002326 38.6835581,5.61211628 L38.078907,4.51513953 C38.8805349,4.00862791 39.9635581,3.5025814 41.2012326,3.5025814 Z M20.2846279,3.50251163 C22.3383488,3.50251163 23.4353256,4.97925581 23.4353256,7.17344186 C23.4353256,7.48297674 23.407186,7.80623256 23.365093,7.98902326 L18.3436977,7.98902326 C18.4702093,9.466 19.3985814,10.3520465 20.7348605,10.3520465 C21.4241628,10.3520465 22.0146279,10.1411163 22.5774186,9.77530233 L23.1399767,10.8022791 C22.4227674,11.2804186 21.5364884,11.618093 20.5239302,11.618093 C18.4283488,11.618093 16.7543953,10.1269302 16.7543953,7.58134884 C16.7543953,5.06367442 18.4702093,3.50251163 20.2846279,3.50251163 Z M67.8994186,7.53909302 C65.607093,7.82048837 64.8331395,8.397 64.8331395,9.26909302 C64.8331395,10.0286279 65.3536047,10.3381628 66.0431395,10.3381628 C66.7180233,10.3381628 67.2666279,10.0144419 67.8994186,9.43793023 L67.8994186,7.53909302 Z M42.396814,7.53909302 C40.1044884,7.82048837 39.3305349,8.397 39.3305349,9.26909302 C39.3305349,10.0286279 39.851,10.3381628 40.5403023,10.3381628 C41.2154186,10.3381628 41.7640233,10.0144419 42.396814,9.43793023 L42.396814,7.53909302 Z M94.3030233,4.83876744 C93.0932558,4.83876744 92.3339535,5.93574419 92.3339535,7.58132558 C92.3339535,9.21295349 93.0932558,10.2957442 94.3030233,10.2957442 C95.5265116,10.2957442 96.2860465,9.21295349 96.2860465,7.58132558 C96.2860465,5.93574419 95.5265116,4.83876744 94.3030233,4.83876744 Z M74.9048605,4.83876744 C73.695093,4.83876744 72.9357907,5.93574419 72.9357907,7.58132558 C72.9357907,9.21295349 73.695093,10.2957442 74.9048605,10.2957442 C76.1283488,10.2957442 76.8878837,9.21295349 76.8878837,7.58132558 C76.8878837,5.93574419 76.1283488,4.83876744 74.9048605,4.83876744 Z M58.5312326,4.85255814 C57.9263488,4.85255814 57.2933256,5.17348837 56.6465814,5.80651163 L56.6465814,5.80651163 L56.6465814,9.57116279 C57.2372791,10.0916279 57.8982093,10.2818605 58.3763488,10.2818605 C59.5016977,10.2818605 60.3456512,9.28325581 60.3456512,7.46860465 C60.3456512,5.85116279 59.825186,4.85255814 58.5312326,4.85255814 Z M20.313,4.76809302 C19.3423023,4.76809302 18.4843953,5.51367442 18.3297442,6.87809302 L22.043,6.87809302 C22.043,5.54181395 21.4378837,4.76809302 20.313,4.76809302 Z" id="形状结合"></path>
                    </g>
                </g>
            </g>
        </g>
    </g>
</svg>